<?xml version="1.0" encoding="utf-8"?>
<!-- Svg Vector Icons : http://www.onlinewebfonts.com/icon -->
<!DOCTYPE svg PUBLIC "-//W3C//DTD SVG 1.1//EN" "http://www.w3.org/Graphics/SVG/1.1/DTD/svg11.dtd">
<svg version="1.1" xmlns="http://www.w3.org/2000/svg" xmlns:xlink="http://www.w3.org/1999/xlink" x="0px" y="0px" viewBox="0 0 256 256" enable-background="new 0 0 256 256" xml:space="preserve">
<metadata> Svg Vector Icons : http://www.onlinewebfonts.com/icon </metadata>
<g><g><g><path fill="#000000" d="M44.1,10.7c-15,2.8-26.6,12.8-32.1,27.8l-1.8,4.8l-0.2,82.5c-0.2,92.4-0.4,87.5,4.5,97.5c5.3,10.7,16.4,19.3,28.3,21.8c3.8,0.8,16.9,1,85.2,1c72,0,81.1-0.1,85.3-1c12.6-2.9,22.5-10.5,28.2-21.9c4.8-9.4,4.5-3.1,4.5-94.9c0-91.1,0.3-85.2-4.4-95.1c-3.5-7.4-10.9-14.9-18.1-18.5c-10.1-4.9-2.7-4.6-93.4-4.7C65.2,9.8,47.8,10,44.1,10.7z M215.8,26.4c6.1,2.9,10.4,7.1,13.4,13.2l2.4,4.9l0.2,82c0.2,89.7,0.3,85.4-3.5,91.9c-2,3.5-7.8,8.9-11.3,10.7c-6.4,3.3-5.9,3.3-88.6,3.3c-46.5,0-78.7-0.3-81-0.7c-11.7-1.9-21-10.9-23.2-22.7c-0.4-2.3-0.7-31-0.7-81.1c0-83.1,0-82.6,3.3-89c1.8-3.5,6.6-8.8,10.1-10.9c1.4-0.9,4.2-2.2,6.2-2.8c3.4-1.1,8.6-1.2,86-1l82.4,0.1L215.8,26.4z"/><path fill="#000000" d="M121.3,93.4v27.7h-28h-28v6.8v6.8l27.9,0.1l27.8,0.2l0.2,27.8l0.1,27.9h6.8h6.8v-28v-28h27.7h27.7v-6.8v-6.8h-27.7H135V93.4V65.7h-6.8h-6.8L121.3,93.4L121.3,93.4z"/></g></g></g>
</svg>